HIERARCHY
ROOT root     
{
	OFFSET 0.0000 0.0000 0.0000
	CHANNELS 6 Xposition Yposition Zposition Zrotation Yrotation Xrotation
	JOINT pelvis   
	{
		OFFSET 0.0000 0.0000 0.0000
		CHANNELS 3 Zrotation Yrotation Xrotation
		JOINT thorax   
		{
			OFFSET 0.0000 23.0750 -5.0000
			CHANNELS 3 Zrotation Yrotation Xrotation
			JOINT rclavicle
			{
				OFFSET 0.0000 28.0009 0.0000
				CHANNELS 3 Zrotation Yrotation Xrotation
				JOINT rhumerus 
				{
					OFFSET -18.5725 5.5939 0.0000
					CHANNELS 3 Zrotation Yrotation Xrotation
					JOINT rradius  
					{
						OFFSET -24.8459 0.0000 0.0000
						CHANNELS 3 Zrotation Yrotation Xrotation
						JOINT rhand    
						{
							OFFSET -24.5477 0.0000 0.0000
							CHANNELS 3 Zrotation Yrotation Xrotation
							End Site
							{
								OFFSET -8.1826 0.0000 0.0000
							}
						}
					}
				}
			}
			JOINT lclavicle
			{
				OFFSET 0.0000 28.0009 0.0000
				CHANNELS 3 Zrotation Yrotation Xrotation
				JOINT lhumerus 
				{
					OFFSET 18.5725 5.5939 0.0000
					CHANNELS 3 Zrotation Yrotation Xrotation
					JOINT lradius  
					{
						OFFSET 24.8459 0.0000 0.0000
						CHANNELS 3 Zrotation Yrotation Xrotation
						JOINT lhand    
						{
							OFFSET 24.5477 0.0000 0.0000
							CHANNELS 3 Zrotation Yrotation Xrotation
							End Site
							{
								OFFSET 8.1826 0.0000 0.0000
							}
						}
					}
				}
			}
			JOINT head     
			{
				OFFSET 0.0000 35.2030 0.0000
				CHANNELS 3 Zrotation Yrotation Xrotation
				End Site
				{
					OFFSET 0.0000 11.7343 0.0000
				}
			}
		}
		JOINT rfemur   
		{
			OFFSET -8.2817 0.0000 0.0000
			CHANNELS 3 Zrotation Yrotation Xrotation
			JOINT rtibia   
			{
				OFFSET 0.0000 -43.3627 0.0000
				CHANNELS 3 Zrotation Yrotation Xrotation
				JOINT rfoot    
				{
					OFFSET 0.0000 -38.2947 0.0000
					CHANNELS 3 Zrotation Yrotation Xrotation
					JOINT rtoes    
					{
						OFFSET 0.0000 0.0000 16.6054
						CHANNELS 3 Zrotation Yrotation Xrotation
						End Site
						{
							OFFSET 0.0000 0.0000 5.5351
						}
					}
				}
			}
		}
		JOINT lfemur   
		{
			OFFSET 8.2817 0.0000 0.0000
			CHANNELS 3 Zrotation Yrotation Xrotation
			JOINT ltibia   
			{
				OFFSET 0.0000 -43.3627 0.0000
				CHANNELS 3 Zrotation Yrotation Xrotation
				JOINT lfoot    
				{
					OFFSET 0.0000 -38.2947 0.0000
					CHANNELS 3 Zrotation Yrotation Xrotation
					JOINT ltoes    
					{
						OFFSET 0.0000 0.0000 16.6054
						CHANNELS 3 Zrotation Yrotation Xrotation
						End Site
						{
							OFFSET 0.0000 0.0000 5.5351
						}
					}
				}
			}
		}
	}
}
MOTION
Frames: 19
Frame Time: .0333333
-75.947 88.34 -5.3696 -164.868 85.6993 -142.526 0 -0 0 2.1642 -11.0867 -7.80353 24.7722 -11.607 6.81542e-05 27.2552 10.3435 -8.17942 -180 85.7569 -180 -4.95859 9.85582 -0.427797 -22.4874 12.9388 -1.1612e-05 -39.2215 -17.2794 5.86615 1.96209e-06 -84.0857 -2.17582e-06 13.1419 -2.17912 -0.251018 10.3391 -0.356807 -4.53504 0.0958672 -10.6531 -34.4009 -0 -0 39.3834 -1.88529e-05 -11.594 6.73008 -1.37728 9.50399e-06 -33.0927 -1.23575 -1.03201 -12.2716 -0 -0 18.7507 -2.42537e-06 1.40955 7.64515 0.187602 1.17415e-06 -49.8609 
-74.935 88.406 -5.3467 -166.146 85.4772 -143.722 0 -0 0 2.67847 -11.5227 -7.89493 24.6472 -11.5504 1.78422e-05 27.7574 9.99912 -9.58971 -180 85.9256 -180 -5.25864 10.241 -0.471503 -22.107 12.8527 -0.000125031 -38.6194 -18.2413 5.59016 3.57209e-06 -85.3523 -3.8742e-06 13.3587 -2.31774 -0.271508 9.45112 -0.27531 -4.64799 0.134652 -10.2889 -35.1213 -0 -0 37.9964 2.72847e-05 -11.561 6.80432 -1.38843 -1.61517e-05 -32.8759 -1.09252 -1.20531 -11.5693 -0 -0 18.2418 1.21419e-06 1.21142 8.69377 0.183095 -3.19885e-06 -51.5045 
-73.908 88.465 -5.3249 -167.571 85.2987 -145.054 0 -0 0 3.15349 -11.9336 -8.00488 24.5246 -11.4826 5.2218e-05 28.3355 9.62238 -10.9801 -180 86.0747 -180 -5.56223 10.5955 -0.516189 -21.7162 12.7797 -2.50275e-05 -38.0045 -19.1544 5.22834 3.3869e-07 -86.6059 -9.41579e-07 13.5269 -2.4486 -0.290399 8.55127 -0.2009 -4.7793 0.13822 -9.91084 -35.8192 -0 -0 36.5803 3.0324e-06 -11.4021 6.91279 -1.39053 1.33041e-06 -32.5149 -0.987316 -1.36024 -10.8622 -0 -0 17.7166 -9.94739e-07 1.02769 9.77487 0.174498 -6.73065e-07 -53.1678 
-72.867 88.515 -5.304 -169.085 85.1465 -146.468 0 -0 0 3.59595 -12.3149 -8.13244 24.4021 -11.4045 1.55731e-05 28.9842 9.20862 -12.3539 -180 86.2365 -180 -5.87137 10.9101 -0.561197 -21.3196 12.7149 -8.21599e-05 -37.3843 -20.0091 4.78687 0 -87.8747 0 13.6354 -2.57202 -0.307514 7.63554 -0.138101 -4.93213 0.112769 -9.52056 -36.5011 -0 -0 35.1581 -4.89814e-06 -11.1241 7.04546 -1.38157 1.14236e-05 -32.0764 -0.916117 -1.49128 -10.1504 -0 -0 17.1739 -2.19903e-07 0.853996 10.8779 0.161194 -2.02669e-06 -54.8487 
-71.811 88.556 -5.2833 -170.637 85.0321 -147.91 0 -0 0 4.01651 -12.6596 -8.27715 24.2789 -11.3168 -3.03745e-05 29.697 8.75711 -13.7185 -180 86.3858 -180 -6.1855 11.1772 -0.605798 -20.9198 12.6538 0.000156945 -36.7619 -20.798 4.27082 5.41866e-06 -89.1202 -6.01647e-06 13.6803 -2.68855 -0.322511 6.69802 -0.0890954 -5.11027 0.0679424 -9.12131 -37.1717 -0 -0 33.7496 -2.94493e-06 -10.7422 7.18988 -1.36014 1.41417e-05 -31.6649 -0.872094 -1.59349 -9.43506 -0 -0 16.6169 -1.02929e-06 0.684504 11.9935 0.142201 -3.24489e-07 -56.5433 
-70.74 88.586 -5.262 -172.156 84.9396 -149.314 0 -0 0 4.42826 -12.9647 -8.43616 24.1528 -11.221 1.53394e-05 30.4681 8.27208 -15.0771 -180 86.5229 -180 -6.50435 11.3943 -0.649608 -20.527 12.5967 0.000137599 -36.1434 -21.5146 3.68561 -180 -89.5396 180 13.6648 -2.79821 -0.335292 5.72957 -0.0542957 -5.3185 0.017586 -8.71858 -37.8328 -0 -0 32.366 -5.84819e-06 -10.2767 7.33445 -1.32585 1.4395e-05 -31.4116 -0.846588 -1.66334 -8.71788 -0 -0 16.0515 -9.00947e-07 0.513305 13.115 0.1165 -3.62992e-07 -58.2477 
-69.652 88.606 -5.2391 -173.571 84.8775 -150.607 0 -0 0 4.84521 -13.2265 -8.60844 24.0218 -11.1164 4.05515e-05 31.2892 7.75565 -16.4347 -180 86.6754 -180 -6.82515 11.5628 -0.69182 -20.1478 12.54 7.66182e-05 -35.5274 -22.1535 3.03584 -180 -88.2764 180 13.6023 -2.90015 -0.345904 4.7204 -0.0322035 -5.56069 -0.0224251 -8.3205 -38.4848 -0 -0 31.0105 4.44775e-06 -9.75009 7.4708 -1.27994 -5.49467e-06 -31.4649 -0.830594 -1.69959 -8.00135 -0 -0 15.4872 -6.73464e-07 0.334401 14.2357 0.0822003 7.9287e-07 -59.93 
-68.546 88.614 -5.2138 -174.814 84.8389 -151.725 0 -0 0 5.27994 -13.4453 -8.78987 23.8842 -11.0047 -1.09523e-05 32.1533 7.21658 -17.7948 -180 86.8194 -180 -7.14719 11.6861 -0.73238 -19.7897 12.485 -4.59616e-05 -34.9182 -22.7086 2.32728 -180 -86.9955 180 13.5072 -2.9939 -0.354587 3.66107 -0.0197038 -5.84083 -0.0354003 -7.93735 -39.1185 -0 -0 29.6748 3.40391e-06 -9.18519 7.59914 -1.22506 -1.23785e-05 -31.9727 -0.815395 -1.7033 -7.286 -0 -0 14.9345 1.32245e-06 0.142904 15.3518 0.0378001 -1.95952e-09 -61.5687 
-67.421 88.608 -5.1852 -175.847 84.824 -152.637 0 -0 0 5.74249 -13.6274 -8.97502 23.7397 -10.8891 -3.47561e-05 33.0498 6.66701 -19.1514 -180 86.974 -180 -7.47141 11.7748 -0.771542 -19.4646 12.4333 -6.50618e-05 -34.3115 -23.1845 1.56787 180 -85.661 -180 13.4032 -3.07776 -0.361706 2.54322 -0.0127014 -6.16186 -0.00609837 -7.57993 -39.7214 -0 -0 28.3376 2.29354e-06 -8.60404 7.72829 -1.16571 -2.50371e-06 -33.0516 -0.794006 -1.67739 -6.57098 -0 -0 14.4031 -4.60769e-08 -0.0639004 16.4625 -0.0181 2.31622e-07 -63.1572 
-66.274 88.587 -5.1532 -176.699 84.8234 -153.375 0 -0 0 6.2373 -13.7804 -9.15963 23.5894 -10.7719 8.0747e-05 33.9727 6.11646 -20.5043 -180 87.1606 -180 -7.79944 11.8369 -0.809768 -19.1746 12.3883 6.51932e-05 -33.706 -23.5764 0.76459 180 -84.3183 -180 13.3091 -3.15116 -0.3677 1.36228 -0.00730078 -6.52488 0.0773705 -7.26125 -40.2747 -0 -0 26.9747 -7.04498e-06 -8.02474 7.87522 -1.10661 -2.15673e-06 -34.7597 -0.763394 -1.62738 -5.85444 -0 -0 13.9079 -7.52301e-07 -0.286296 17.5669 -0.0863999 1.03971e-06 -64.6647 
-65.102 88.549 -5.1178 -177.371 84.839 -153.945 0 -0 0 6.76217 -13.9143 -9.33746 23.434 -10.6576 -9.25831e-06 34.9154 5.57664 -21.8464 -180 87.3719 -180 -8.13679 11.8874 -0.848493 -18.9251 12.3522 0.000206181 -33.101 -23.8875 -0.072672 -180 -82.9408 180 13.245 -3.21251 -0.373109 0.118199 0.000399861 -6.92881 0.221769 -6.99263 -40.7566 -0 -0 25.5627 -8.72417e-06 -7.46113 8.05988 -1.05189 1.52831e-06 -37.0527 -0.723702 -1.56006 -5.13213 -0 -0 13.4566 -2.29919e-06 -0.521407 18.6623 -0.166899 2.34145e-07 -66.0714 
-63.903 88.49 -5.0798 -177.983 84.8622 -154.473 0 -0 0 7.30789 -14.0412 -9.50597 23.2743 -10.5485 -1.83932e-06 35.8765 5.05436 -23.1727 -180 87.635 -180 -8.48986 11.9365 -0.889158 -18.7156 12.3273 -0.000131132 -32.496 -24.1172 -0.934086 180 -81.5565 180 13.2236 -3.2611 -0.378091 -1.18385 0.0134035 -7.36948 0.426351 -6.78515 -41.1532 -0 -0 24.0886 -3.94431e-07 -6.92019 8.30125 -1.00389 6.89841e-06 -39.7709 -0.680795 -1.48455 -4.39943 -0 -0 13.0608 4.20509e-06 -0.761502 19.7447 -0.257303 -2.83935e-06 -67.3506 
-62.677 88.407 -5.0412 -178.684 84.8688 -155.119 0 -0 0 7.85527 -14.1789 -9.66907 23.119 -10.4537 8.34336e-06 36.846 4.56167 -24.4707 -180 87.9663 -180 -8.87045 11.9944 -0.933774 -18.5426 12.3196 7.21485e-05 -31.8834 -24.2794 -1.80686 180 -80.1534 -180 13.254 -3.29401 -0.382806 -2.53195 0.0336971 -7.8399 0.681091 -6.65207 -41.4572 -0 -0 22.5639 -3.09033e-06 -6.40151 8.61363 -0.962703 1.42552e-07 -42.662 -0.648496 -1.41606 -3.65697 -0 -0 12.7274 1.95778e-06 -0.991599 20.807 -0.352302 6.87102e-06 -68.4624 
-61.418 88.295 -5.0005 -179.463 84.8838 -155.877 0 -0 0 8.40042 -14.3277 -9.80952 22.9575 -10.3663 -8.21281e-07 37.8349 4.09044 -25.7443 -180 88.3648 -180 -9.28143 12.068 -0.983251 -18.3953 12.3171 3.24422e-05 -31.2818 -24.3577 -2.68516 180 -78.7319 180 13.3303 -3.31791 -0.387791 -3.91849 0.0612942 -8.33535 0.975948 -6.57234 -41.6413 -0 -0 20.9981 -3.63314e-06 -5.91951 9.01032 -0.930292 2.20451e-06 -45.4441 -0.622099 -1.33863 -2.88304 -0 -0 12.4587 -9.35577e-06 -1.21505 21.846 -0.452204 -1.9767e-07 -69.4701 
-60.129 88.149 -4.9617 179.385 84.8857 -157.037 0 -0 0 8.91078 -14.5016 -9.95022 22.8071 -10.3034 3.86445e-05 38.8209 3.65923 -26.9756 -180 88.8338 -180 -9.74062 12.1605 -1.04001 -18.279 12.336 7.54153e-05 -30.6646 -24.3848 -3.5564 -180 -77.3155 180 13.4482 -3.32685 -0.392293 -5.32063 0.0969029 -8.84295 1.28189 -6.55697 -41.7413 -0 -0 19.4591 1.00831e-05 -5.46505 9.49143 -0.90389 1.36891e-06 -47.8726 -0.62871 -1.27729 -2.09468 -0 -0 12.2618 -1.86873e-05 -1.40455 22.8442 -0.545302 -4.68576e-06 -70.2916 
-58.813 87.967 -4.9252 177.799 84.8829 -158.653 0 -0 0 9.37266 -14.7013 -10.0975 22.6679 -10.2624 3.94558e-05 39.803 3.26008 -28.1628 -180 89.4453 -180 -10.2534 12.267 -1.10477 -18.1849 12.3718 -0.000148797 -30.0355 -24.3591 -4.41596 180 -75.894 180 13.5905 -3.32509 -0.396304 -6.72316 0.140095 -9.35259 1.57058 -6.58165 -41.7738 -0 -0 18.0156 -3.33852e-06 -5.04989 10.0497 -0.883496 4.36537e-06 -49.7856 -0.675001 -1.22619 -1.29341 -0 -0 12.136 -2.2441e-06 -1.55309 23.7867 -0.626493 6.32889e-07 -70.9396 
-57.475 87.745 -4.8919 175.673 84.8632 -160.82 0 -0 0 9.77542 -14.9193 -10.2728 22.5456 -10.2475 2.27098e-05 40.767 2.89538 -29.3007 -0.000318507 89.8146 -0.000318791 -10.8262 12.3853 -1.17818 -18.1172 12.4242 -0.000114396 -29.3817 -24.2949 -5.25996 -180 -74.4848 180 13.7394 -3.31354 -0.399313 -8.10971 0.191303 -9.85233 1.80965 -6.61712 -41.7857 -0 -0 16.7615 2.34544e-06 -4.69014 10.659 -0.869392 -7.09322e-06 -51.0773 -0.769115 -1.18609 -0.497801 -0 -0 12.0856 -1.61732e-05 -1.65182 24.6564 -0.689204 7.04188e-06 -71.4173 
-56.118 87.482 -4.8605 173.134 84.8503 -163.407 0 -0 0 10.1195 -15.1417 -10.473 22.4377 -10.2521 -2.44184e-05 41.7087 2.55925 -30.3944 -4.32296e-05 89.2058 -4.32579e-05 -11.4584 12.5015 -1.25924 -18.0718 12.4864 -3.77142e-05 -28.7082 -24.1949 -6.08974 180 -73.0881 -180 13.8734 -3.3018 -0.401824 -9.47034 0.250095 -10.3387 1.96899 -6.61328 -41.7982 -0 -0 15.7865 4.91167e-06 -4.41452 11.2741 -0.864713 7.51606e-07 -51.7525 -0.904994 -1.1268 0.290597 -0 -0 12.1119 1.56307e-05 -1.71486 25.4472 -0.736998 -2.02598e-07 -71.7658 
-54.754 87.18 -4.8303 170.133 84.8278 -166.432 0 -0 0 10.4106 -15.3517 -10.7424 22.3565 -10.2808 -2.91437e-05 42.6011 2.25413 -31.4323 -0 88.3591 -0 -12.1523 12.6038 -1.34703 -18.0706 12.5658 -5.62646e-05 -27.9831 -24.0789 -6.90862 -180 -71.7108 180 13.977 -3.28734 -0.403092 -10.7949 0.319374 -10.7993 2.01649 -6.52635 -41.8876 -0 -0 15.1947 -1.74915e-05 -4.25572 11.8298 -0.873996 5.41101e-06 -51.7479 -1.08311 -1.0582 1.02731 -0 -0 12.2158 -1.46287e-07 -1.73901 26.1407 -0.766395 2.46509e-06 -71.9921 
